<svg width="388" height="265" viewBox="0 0 388 265" fill="none" xmlns="http://www.w3.org/2000/svg">
<path d="M220.743 40.2835C200.968 40.2835 193.809 47.4424 193.809 67.2181C193.809 47.4424 186.65 40.2835 166.874 40.2835C186.65 40.2835 193.809 33.1245 193.809 13.3489C193.809 33.1245 200.968 40.2835 220.743 40.2835Z" fill="#24D906"/>
<path d="M193.893 61.8652L193.504 62.0637V337.123L388 438.51V-35.9995L193.893 61.8652ZM257.884 214.861V185.417L272.791 184.85V215.683L257.884 214.861ZM272.791 217.101V247.927L257.884 245.715V216.278L272.791 217.101ZM194.921 187.813L204.1 187.465V211.898L194.921 211.395V187.82V187.813ZM205.518 187.409L215.569 187.026V212.522L205.518 211.969V187.409ZM216.986 186.969L228.03 186.551V213.209L216.986 212.6V186.969ZM229.447 186.494L241.61 186.034V213.961L229.447 213.287V186.494ZM243.028 185.977L256.467 185.467V214.776L243.028 214.032V185.97V185.977ZM257.884 183.992V154.556L272.791 152.599V183.425L257.884 183.992ZM274.208 184.786L290.816 184.155V216.668L274.208 215.754V184.786ZM292.233 184.099L310.818 183.39V217.767L292.233 216.739V184.092V184.099ZM312.236 183.34L333.138 182.546V219.007L312.236 217.852V183.34ZM334.556 182.49L358.209 181.589V220.382L334.556 219.078V182.49ZM359.626 181.533L386.575 180.505V221.949L359.626 220.46V181.533ZM386.575 179.087L359.626 180.115V141.195L386.575 137.658V179.094V179.087ZM358.209 180.165L334.556 181.065V144.476L358.209 141.372V180.165ZM333.138 181.122L312.236 181.916V147.411L333.138 144.668V181.122ZM310.818 181.972L292.233 182.681V150.041L310.818 147.602V181.972ZM290.816 182.731L274.208 183.362V152.401L290.816 150.218V182.724V182.731ZM274.208 150.976V120.03L290.816 116.301V148.793L274.208 150.976ZM272.791 151.16L257.884 153.117V123.694L272.791 120.349V151.16ZM256.467 153.301L243.028 155.066V127.033L256.467 124.013V153.301ZM256.467 154.733V184.042L243.028 184.552V156.498L256.467 154.733ZM241.61 184.602L229.447 185.063V158.277L241.61 156.682V184.602ZM228.03 185.119L216.986 185.538V159.914L228.03 158.461V185.119ZM215.569 185.594L205.518 185.977V161.424L215.569 160.106V185.601V185.594ZM204.1 186.034L194.921 186.381V162.813L204.1 161.608V186.034ZM194.921 212.798L204.1 213.301V237.72L194.921 236.359V212.791V212.798ZM205.518 213.379L215.569 213.932V239.421L205.518 237.932V213.379ZM216.986 214.01L228.03 214.62V241.271L216.986 239.634V214.01ZM229.447 214.698L241.61 215.371V243.291L229.447 241.484V214.698ZM243.028 215.449L256.467 216.193V245.495L243.028 243.504V215.456V215.449ZM256.467 246.927V276.208L243.028 272.962V244.928L256.467 246.92V246.927ZM257.884 247.14L272.791 249.351V280.156L257.884 276.555V247.14ZM274.208 249.564L290.816 252.031V284.515L274.208 280.503V249.564ZM274.208 248.132V217.172L290.816 218.086V250.592L274.208 248.125V248.132ZM292.233 218.171L310.818 219.199V253.569L292.233 250.811V218.171ZM312.236 219.277L333.138 220.432V256.886L312.236 253.781V219.277ZM334.556 220.51L358.209 221.814V260.6L334.556 257.091V220.51ZM359.626 221.892L386.575 223.381V264.81L359.626 260.813V221.892ZM386.575 136.233L359.626 139.77V100.864L386.575 94.8105V136.226V136.233ZM358.209 139.954L334.556 143.059V106.492L358.209 101.183V139.954ZM333.138 143.243L312.236 145.986V111.496L333.138 106.803V143.243ZM310.818 146.171L292.233 148.609V115.982L310.818 111.808V146.163V146.171ZM292.233 114.537V81.9457L310.818 76.0413V110.369L292.233 114.544V114.537ZM290.816 114.855L274.208 118.584V87.6728L290.816 82.3993V114.863V114.855ZM272.791 118.903L257.884 122.248V92.8542L272.791 88.1194V118.903ZM256.467 122.567L243.028 125.587V97.5819L256.467 93.3149V122.574V122.567ZM241.61 125.906L229.447 128.635V101.891L241.61 98.0285V125.906ZM241.61 127.359V155.264L229.447 156.859V130.088L241.61 127.359ZM228.03 157.044L216.986 158.497V132.887L228.03 130.407V157.044ZM215.569 158.681L205.518 159.999V135.46L215.569 133.206V158.681ZM204.1 160.184L194.921 161.389V137.835L204.1 135.772V160.176V160.184ZM194.921 237.798L204.1 239.159V263.563L194.921 261.344V237.798ZM205.518 239.371L215.569 240.86V266.334L205.518 263.903V239.371ZM216.986 241.072L228.03 242.71V269.34L216.986 266.674V241.072ZM229.447 242.922L241.61 244.73V272.628L229.447 269.687V242.922ZM241.61 274.081V301.952L229.447 297.883V271.147L241.61 274.089V274.081ZM243.028 274.422L256.467 277.668V306.92L243.028 302.42V274.422ZM257.884 278.008L272.791 281.609V312.385L257.884 307.395V278.008ZM274.208 281.956L290.816 285.968V318.424L274.208 312.867V281.956ZM292.233 286.308L310.818 290.795V325.115L292.233 318.892V286.301V286.308ZM292.233 284.848V252.229L310.818 254.986V289.335L292.233 284.848ZM312.236 255.199L333.138 258.303V294.736L312.236 289.682V255.199ZM334.556 258.509L358.209 262.018V300.789L334.556 295.076V258.509ZM359.626 262.23L386.575 266.228V307.643L359.626 301.129V262.23ZM386.575 93.3432L359.626 99.3965V60.5185L386.575 51.9561V93.3432ZM358.209 99.7083L334.556 105.017V68.4784L358.209 60.965V99.7083ZM333.138 105.336L312.236 110.029V75.5664L333.138 68.9249V105.336ZM312.236 74.085V39.6654L333.138 31.0747V67.4435L312.236 74.085ZM310.818 74.5387L292.233 80.443V47.8876L310.818 40.2537V74.5387ZM290.816 80.8966L274.208 86.1701V55.2946L290.816 48.4688V80.8895V80.8966ZM272.791 86.6238L257.884 91.3586V62.007L272.791 55.8829V86.6238ZM256.467 91.8122L243.028 96.0792V68.1098L256.467 62.5882V91.8051V91.8122ZM241.61 96.5329L229.447 100.396V73.6952L241.61 68.6981V96.5329ZM228.03 100.85L216.986 104.358V78.8198L228.03 74.2835V100.85ZM228.03 102.338V128.947L216.986 131.427V105.847L228.03 102.338ZM215.569 131.746L205.518 134V109.49L215.569 106.293V131.739V131.746ZM204.1 134.319L194.921 136.382V112.857L204.1 109.943V134.319ZM194.921 262.797L204.1 265.016V289.385L194.921 286.308V262.79V262.797ZM205.518 265.356L215.569 267.787V293.226L205.518 289.859V265.356ZM216.986 268.128L228.03 270.793V297.394L216.986 293.694V268.12V268.128ZM228.03 298.89V325.449L216.986 320.721V295.19L228.03 298.89ZM229.447 299.365L241.61 303.433V331.261L229.447 326.058V299.365ZM243.028 303.908L256.467 308.409V337.619L243.028 331.863V303.908ZM257.884 308.884L272.791 313.874V344.608L257.884 338.228V308.884ZM274.208 314.349L290.816 319.906V352.319L274.208 345.21V314.342V314.349ZM292.233 320.381L310.818 326.604V360.882L292.233 352.929V320.381ZM312.236 327.079L333.138 334.082V370.444L312.236 361.498V327.086V327.079ZM312.236 325.583V291.128L333.138 296.182V332.586L312.236 325.583ZM334.556 296.522L358.209 302.235V340.971L334.556 333.054V296.522ZM359.626 302.583L386.575 309.096V350.477L359.626 341.453V302.583ZM386.575 50.4605L359.626 59.0229V20.1875L386.575 9.11594V50.4676V50.4605ZM358.209 59.4765L334.556 66.9899V30.4864L358.209 20.7616V59.4695V59.4765ZM334.556 28.9625V-7.49137L358.209 -19.4206V19.2377L334.556 28.9625ZM333.138 29.5437L312.236 38.1344V3.76445L333.138 -6.77548V29.5437ZM310.818 38.7156L292.233 46.3495V13.8437L310.818 4.47326V38.7085V38.7156ZM290.816 46.9378L274.208 53.7636V22.9376L290.816 14.5666V46.9378ZM272.791 54.3448L257.884 60.4689V31.1669L272.791 23.6464V54.3377V54.3448ZM256.467 61.0572L243.028 66.5788V38.6589L256.467 31.8828V61.0501V61.0572ZM241.61 67.16L229.447 72.1571V45.506L241.61 39.3748V67.16ZM228.03 72.7383L216.986 77.2746V51.786L228.03 46.2219V72.7383ZM215.569 77.8559L205.518 81.9882V57.5699L215.569 52.5019V77.8629V77.8559ZM215.569 79.3869V104.798L205.518 107.994V83.5263L215.569 79.394V79.3869ZM204.1 108.441L194.921 111.354V87.8713L204.1 84.1004V108.441ZM194.921 287.797L204.1 290.873V315.206L194.921 311.28V287.804V287.797ZM205.518 291.348L215.569 294.715V320.111L205.518 315.809V291.348ZM215.569 321.656V347.003L205.518 341.765V317.354L215.569 321.656ZM216.986 322.266L228.03 326.994V353.503L216.986 347.748V322.266ZM229.447 327.596L241.61 332.799V360.577L229.447 354.24V327.596ZM243.028 333.408L256.467 339.164V368.324L243.028 361.321V333.416V333.408ZM257.884 339.766L272.791 346.146V376.83L257.884 369.061V339.766ZM274.208 346.755L290.816 353.865V386.229L274.208 377.574V346.762V346.755ZM292.233 354.474L310.818 362.427V396.655L292.233 386.966V354.474ZM312.236 363.036L333.138 371.982V408.287L312.236 397.392V363.036ZM334.556 372.591L358.209 382.72V421.364L334.556 409.031V372.591ZM334.556 371.046V334.557L358.209 342.474V381.168L334.556 371.039V371.046ZM359.626 342.949L386.575 351.972V393.317L359.626 381.784V342.956V342.949ZM386.575 7.57783L359.626 18.6494V-20.1081L386.575 -33.6959V7.60618V7.57783ZM204.093 58.2787V82.5694L194.914 86.3403V62.9072L204.093 58.2787ZM194.914 312.811L204.093 316.737V341.014L194.914 336.23V312.811ZM359.626 422.094V383.315L386.575 394.848V436.136L359.626 422.087V422.094Z" fill="#D624ED"/>
<path d="M0 -36V438.503L194.496 337.115V62.0632L0 -36ZM115.202 215.683V184.85L130.108 185.417V214.86L115.202 215.683ZM130.108 216.278V245.715L115.202 247.926V217.1L130.108 216.278ZM1.41761 180.519L28.3664 181.547V220.474L1.41761 221.963V180.519ZM29.784 181.596L53.4368 182.496V219.085L29.784 220.389V181.596ZM54.8544 182.553L75.7571 183.347V217.859L54.8544 219.014V182.553ZM77.1747 183.404L95.7596 184.112V216.76L77.1747 217.788V183.411V183.404ZM97.1772 184.162L113.785 184.793V215.761L97.1772 216.675V184.162ZM115.202 183.432V152.606L130.108 154.562V183.999L115.202 183.432ZM131.526 185.473L144.965 185.984V214.045L131.526 214.789V185.48V185.473ZM146.382 186.04L158.546 186.501V213.294L146.382 213.967V186.04ZM159.963 186.558L171.006 186.976V212.606L159.963 213.216V186.558ZM172.424 187.033L182.475 187.415V211.976L172.424 212.528V187.033ZM183.892 187.472L193.071 187.819V211.394L183.892 211.898V187.465V187.472ZM193.071 186.402L183.892 186.055V161.629L193.071 162.834V186.402ZM182.475 185.998L172.424 185.615V160.119L182.475 161.438V185.991V185.998ZM171.006 185.558L159.963 185.14V158.482L171.006 159.935V185.558ZM158.546 185.083L146.382 184.623V156.703L158.546 158.298V185.083ZM144.965 184.566L131.526 184.056V154.747L144.965 156.512V184.566ZM131.526 153.322V124.034L144.965 127.054V155.087L131.526 153.322ZM130.108 153.138L115.202 151.181V120.37L130.108 123.715V153.138ZM113.785 150.997L97.1772 148.814V116.322L113.785 120.051V150.997ZM113.785 152.429V183.389L97.1772 182.759V150.253L113.785 152.436V152.429ZM95.7596 182.702L77.1747 181.993V147.623L95.7596 150.061V182.702ZM75.7571 181.943L54.8544 181.15V144.696L75.7571 147.439V181.943ZM53.4368 181.093L29.784 180.193V141.4L53.4368 144.504V181.093ZM28.3664 180.136L1.41761 179.108V137.671L28.3664 141.208V180.129V180.136ZM1.41761 223.38L28.3664 221.892V260.812L1.41761 264.81V223.38ZM29.784 221.814L53.4368 220.51V257.091L29.784 260.6V221.814ZM54.8544 220.432L75.7571 219.276V253.781L54.8544 256.885V220.432ZM77.1747 219.198L95.7596 218.17V250.811L77.1747 253.568V219.198ZM97.1772 218.093L113.785 217.178V248.139L97.1772 250.605V218.1V218.093ZM113.785 249.571V280.51L97.1772 284.522V252.037L113.785 249.571ZM115.202 249.358L130.108 247.146V276.562L115.202 280.163V249.358ZM131.526 246.934L144.965 244.942V272.975L131.526 276.222V246.941V246.934ZM131.526 245.502V216.2L144.965 215.456V243.503L131.526 245.495V245.502ZM146.382 215.378L158.546 214.704V241.49L146.382 243.298V215.378ZM159.963 214.626L171.006 214.017V239.64L159.963 241.278V214.626ZM172.424 213.939L182.475 213.386V237.939L172.424 239.428V213.939ZM183.892 213.308L193.071 212.805V236.373L183.892 237.734V213.315V213.308ZM193.071 161.388L183.892 160.183V135.779L193.071 137.842V161.395V161.388ZM182.475 159.999L172.424 158.68V133.206L182.475 135.46V159.999ZM171.006 158.496L159.963 157.043V130.406L171.006 132.887V158.496ZM158.546 156.859L146.382 155.264V127.358L158.546 130.087V156.859ZM146.382 125.905V98.028L158.546 101.891V128.634L146.382 125.905ZM144.965 125.586L131.526 122.567V93.3073L144.965 97.5744V125.579V125.586ZM130.108 122.248L115.202 118.902V88.1189L130.108 92.8537V122.248ZM113.785 118.583L97.1772 114.855V82.3917L113.785 87.6653V118.576V118.583ZM95.7596 114.536L77.1747 110.361V76.0338L95.7596 81.9381V114.529V114.536ZM95.7596 115.989V148.615L77.1747 146.177V111.821L95.7596 115.996V115.989ZM75.7571 145.986L54.8544 143.243V106.803L75.7571 111.495V145.986ZM53.4368 143.058L29.784 139.954V101.182L53.4368 106.491V143.058ZM28.3664 139.77L1.41761 136.233V94.8171L28.3664 100.87V139.777V139.77ZM1.41761 266.242L28.3664 262.244V301.143L1.41761 307.657V266.242ZM29.784 262.031L53.4368 258.523V295.09L29.784 300.803V262.031ZM54.8544 258.31L75.7571 255.206V289.689L54.8544 294.743V258.31ZM77.1747 255L95.7596 252.243V284.862L77.1747 289.349V255ZM95.7596 286.322V318.913L77.1747 325.136V290.816L95.7596 286.329V286.322ZM97.1772 285.982L113.785 281.97V312.881L97.1772 318.438V285.982ZM115.202 281.63L130.108 278.029V307.416L115.202 312.406V281.63ZM131.526 277.682L144.965 274.435V302.433L131.526 306.934V277.682ZM146.382 274.095L158.546 271.154V297.89L146.382 301.958V274.088V274.095ZM146.382 272.635V244.737L158.546 242.929V269.694L146.382 272.635ZM159.963 242.724L171.006 241.086V266.688L159.963 269.353V242.724ZM172.424 240.874L182.475 239.385V263.917L172.424 266.348V240.874ZM183.892 239.172L193.071 237.811V261.358L183.892 263.577V239.172ZM193.071 136.396L183.892 134.333V109.957L193.071 112.87V136.396ZM182.475 134.014L172.424 131.76V106.314L182.475 109.511V134.021V134.014ZM171.006 131.441L159.963 128.96V102.352L171.006 105.86V131.441ZM159.963 100.863V74.2972L171.006 78.8335V104.372L159.963 100.863ZM158.546 100.41L146.382 96.5466V68.7118L158.546 73.7089V100.41ZM144.965 96.093L131.526 91.8259V62.609L144.965 68.1306V96.1V96.093ZM130.108 91.3723L115.202 86.6375V55.8966L130.108 62.0207V91.3723ZM113.785 86.1839L97.1772 80.9103V48.4896L113.785 55.3154V86.1909V86.1839ZM95.7596 80.4567L77.1747 74.5524V40.2674L95.7596 47.9013V80.4567ZM75.7571 74.0987L54.8544 67.4572V31.0884L75.7571 39.6791V74.0987ZM75.7571 75.5872V110.049L54.8544 105.357V68.9457L75.7571 75.5872ZM53.4368 105.031L29.784 99.722V60.9787L53.4368 68.4921V105.031ZM28.3664 99.4031L1.41761 93.3499V51.9627L28.3664 60.5251V99.4031ZM1.41761 309.117L28.3664 302.603V341.474L1.41761 350.497V309.117ZM29.784 302.263L53.4368 296.55V333.082L29.784 340.999V302.263ZM54.8544 296.203L75.7571 291.149V325.604L54.8544 332.607V296.203ZM75.7571 327.1V361.512L54.8544 370.457V334.096L75.7571 327.093V327.1ZM77.1747 326.625L95.7596 320.401V352.95L77.1747 360.903V326.625ZM97.1772 319.927L113.785 314.37V345.238L97.1772 352.347V319.934V319.927ZM115.202 313.895L130.108 308.905V338.249L115.202 344.628V313.895ZM131.526 308.43L144.965 303.929V331.884L131.526 337.64V308.43ZM146.382 303.454L158.546 299.385V326.079L146.382 331.282V303.454ZM159.963 298.91L171.006 295.211V320.742L159.963 325.469V298.91ZM159.963 297.415V270.813L171.006 268.148V293.722L159.963 297.422V297.415ZM172.424 267.801L182.475 265.37V289.873L172.424 293.24V267.801ZM183.892 265.03L193.071 262.811V286.329L183.892 289.405V265.037V265.03ZM193.071 111.382L183.892 108.469V84.1283L193.071 87.8992V111.382ZM182.475 108.015L172.424 104.818V79.4077L182.475 83.54V108.008V108.015ZM172.424 77.8837V52.5227L182.475 57.5906V82.009L172.424 77.8767V77.8837ZM171.006 77.3025L159.963 72.7662V46.2498L171.006 51.8139V77.3025ZM158.546 72.185L146.382 67.1879V39.4027L158.546 45.5339V72.185ZM144.965 66.6066L131.526 61.0851V31.9177L144.965 38.6939V66.6137V66.6066ZM130.108 60.5038L115.202 54.3798V23.6885L130.108 31.2089V60.5109V60.5038ZM113.785 53.7915L97.1772 46.9657V14.5945L113.785 22.9655V53.7915ZM95.7596 46.3844L77.1747 38.7506V4.51531L95.7596 13.8857V46.3915V46.3844ZM75.7571 38.1623L54.8544 29.5716V-6.74761L75.7571 3.79233V38.1623ZM53.4368 28.9904L29.784 19.2655V-19.3998L53.4368 -7.47059V28.9833V28.9904ZM53.4368 30.5214V67.0248L29.784 59.5115V20.8037L53.4368 30.5285V30.5214ZM28.3664 59.0579L1.41761 50.4813V9.12963L28.3664 20.2012V59.0366V59.0579ZM1.41761 351.993L28.3664 342.97V381.798L1.41761 393.33V351.986V351.993ZM29.784 342.495L53.4368 334.578V371.067L29.784 381.196V342.502V342.495ZM53.4368 372.605V409.045L29.784 421.378V382.734L53.4368 372.605ZM54.8544 371.995L75.7571 363.05V397.406L54.8544 408.3V371.995ZM77.1747 362.441L95.7596 354.488V386.98L77.1747 396.669V362.441ZM97.1772 353.878L113.785 346.769V377.581L97.1772 386.235V353.871V353.878ZM115.202 346.159L130.108 339.78V369.075L115.202 376.844V346.159ZM131.526 339.171L144.965 333.415V361.321L131.526 368.324V339.164V339.171ZM146.382 332.813L158.546 327.61V354.254L146.382 360.591V332.813ZM159.963 327L171.006 322.273V347.754L159.963 353.51V327ZM172.424 321.67L182.475 317.368V341.779L172.424 347.017V321.67ZM172.424 320.125V294.729L182.475 291.362V315.823L172.424 320.125ZM183.892 290.887L193.071 287.811V311.286L183.892 315.213V290.88V290.887ZM193.071 86.3611L183.892 82.5902V58.2994L193.071 62.928V86.3611ZM28.3664 -20.1086V18.6772L1.41761 7.6057V-33.6964L28.3664 -20.1086ZM1.41761 394.876L28.3664 383.343V422.122L1.41761 436.171V394.883V394.876ZM183.9 341.042V316.765L193.079 312.839V336.257L183.9 341.042Z" fill="#D624ED"/>
<path d="M248.623 178.186C243.539 169.212 232.622 169.064 229.78 166.97C226.938 164.875 221.406 163.68 216.169 160.685C210.932 157.696 207.495 156.801 207.495 154.706C207.495 152.611 207.343 147.079 209.437 142.59C211.532 138.105 211.532 133.616 211.532 133.616C213.769 134.811 213.922 132.716 215.864 128.679C217.811 124.642 218.406 121.952 217.959 119.857C217.512 117.763 215.569 118.063 215.569 118.063C215.569 118.063 219.011 105.052 212.28 96.6775C206.905 89.9915 197.703 88.4509 195.715 88.4509H193.31C191.317 88.4509 182.114 89.9864 176.745 96.6775C170.013 105.052 173.455 118.063 173.455 118.063C173.455 118.063 171.508 117.763 171.065 119.857C170.613 121.952 171.213 124.642 173.16 128.679C175.102 132.721 175.255 134.811 177.492 133.616C177.492 133.616 177.492 138.1 179.587 142.59C181.677 147.079 181.529 152.611 181.529 154.706C181.529 156.801 178.092 157.696 172.855 160.685C167.618 163.675 162.086 164.875 159.244 166.97C156.402 169.064 145.486 169.212 140.401 178.186C135.317 187.16 133.669 195.844 133.669 205.103C133.669 214.361 237.442 218.383 255.355 205.103C255.355 201.711 253.707 187.155 248.623 178.186Z" fill="white"/>
</svg>
